<svg xmlns="http://www.w3.org/2000/svg" xmlns:xlink="http://www.w3.org/1999/xlink" version="1.1" x="0px" y="0px" viewBox="0 0 100 100" xml:space="preserve" fill="#7fcfc7"><path d="M50.4,5c-24.8,0-45,20.2-45,45s20.2,45,45,45c24.8,0,45-20.2,45-45S75.2,5,50.4,5z M33.6,69.5H23V58.9h10.6V69.5z   M33.6,55.3H23V44.7h10.6V55.3z M33.6,41.1H23V30.5h10.6V41.1z M48.3,69.5H37.7V58.9h10.6V69.5z M48.3,55.3H37.7V44.7h10.6V55.3z   M63.1,69.5H52.5V58.9h10.6V69.5z M63.1,55.3H52.5V44.7h10.6V55.3z M63.1,41.1H52.5V30.5h10.6V41.1z M77.8,69.5H67.2V58.9h10.6V69.5  z"/></svg>